<svg width="14" height="14" viewBox="0 0 14 14" fill="none" xmlns="http://www.w3.org/2000/svg">
<g clip-path="url(#clip0)">
<path d="M4.10704 0.399249L5.41954 3.46175C5.47529 3.59258 5.48704 3.73798 5.45301 3.87606C5.41898 4.01414 5.34102 4.13743 5.23086 4.22737L3.57383 5.58362C4.5774 7.71213 6.29036 9.42509 8.41887 10.4287L9.77512 8.77163C9.8649 8.66125 9.98819 8.58312 10.1263 8.54908C10.2645 8.51504 10.41 8.52693 10.5407 8.58296L13.6032 9.89546C13.7442 9.95695 13.8593 10.0657 13.9287 10.203C13.9981 10.3403 14.0174 10.4974 13.9833 10.6474L13.3271 13.4912C13.2937 13.6358 13.2123 13.7648 13.0961 13.8571C12.9799 13.9495 12.8359 13.9998 12.6875 13.9998C5.67383 13.9998 5.47356e-06 8.31499 5.16746e-06 1.31226C-9.02065e-05 1.1638 0.0501522 1.0197 0.142527 0.903488C0.234903 0.787274 0.363951 0.705815 0.508599 0.672413L3.35235 0.0161624C3.50306 -0.0177083 3.66087 0.0020127 3.79861 0.0719323C3.93635 0.141852 4.04542 0.257596 4.10704 0.399249Z" fill="#A9C5E0"/>
</g>
<defs>
<clipPath id="clip0">
<rect width="13.9998" height="13.9998" fill="white" transform="matrix(-4.37114e-08 -1 -1 4.37114e-08 13.9998 13.9998)"/>
</clipPath>
</defs>
</svg>
