<svg width="24" height="24" viewBox="0 0 24 24" fill="none" xmlns="http://www.w3.org/2000/svg">
<path fill-rule="evenodd" clip-rule="evenodd" d="M21.1875 2.8125H2.8125C2.025 2.8125 1.5 3.3375 1.5 4.125V19.875C1.5 20.6625 2.025 21.1875 2.8125 21.1875H21.1875C21.975 21.1875 22.5 20.6625 22.5 19.875V4.125C22.5 3.3375 21.975 2.8125 21.1875 2.8125ZM9.375 6.75C10.1625 6.75 10.6875 7.275 10.6875 8.0625C10.6875 8.85 10.1625 9.375 9.375 9.375C8.5875 9.375 8.0625 8.85 8.0625 8.0625C8.0625 7.275 8.5875 6.75 9.375 6.75ZM6.75 12L4.125 17.25H19.875L14.625 9.375L10.6875 14.625L6.75 12Z" fill="#2A496B"/>
</svg>
